<svg width="50" height="50" viewBox="0 0 50 50" fill="none" xmlns="http://www.w3.org/2000/svg">
<rect width="50" height="50" rx="25" fill="black"/>
<circle cx="25" cy="25" r="16" stroke="#1A97F5" stroke-width="6"/>
<path d="M32.3203 23.6289C32.6133 21.6367 31.1016 20.5586 29.0156 19.8437L29.6953 17.1367L28.0547 16.7266L27.3984 19.3633C26.9648 19.2578 26.5195 19.1523 26.0742 19.0586L26.7305 16.4102L25.0898 16L24.4219 18.6953C24.0586 18.6133 23.707 18.5312 23.3672 18.4492V18.4375L21.0937 17.875L20.6602 19.6328C20.6602 19.6328 21.8789 19.9141 21.8555 19.9258C22.5234 20.0898 22.6406 20.5352 22.6172 20.8867L21.8437 23.9687C21.8906 23.9805 21.9492 23.9922 22.0195 24.0273C21.9609 24.0156 21.9023 24.0039 21.8437 23.9805L20.7656 28.293C20.6836 28.4922 20.4727 28.7969 20.0156 28.6797C20.0273 28.7031 18.8203 28.3867 18.8203 28.3867L18 30.2734L20.1445 30.8125C20.543 30.918 20.9297 31.0117 21.3164 31.1172L20.6367 33.8477L22.2773 34.2578L22.957 31.5508C23.4023 31.668 23.8477 31.7852 24.2695 31.8906L23.6016 34.5859L25.2422 34.9961L25.9219 32.2656C28.7344 32.793 30.8437 32.582 31.7227 30.0391C32.4375 28 31.6875 26.8164 30.2109 26.043C31.3008 25.7969 32.1094 25.082 32.3203 23.6289V23.6289ZM28.5586 28.9023C28.0547 30.9414 24.6094 29.8398 23.4961 29.5586L24.3984 25.9375C25.5117 26.2187 29.0977 26.7695 28.5586 28.9023ZM29.0742 23.5937C28.6055 25.457 25.7461 24.5078 24.8203 24.2734L25.6406 20.9922C26.5664 21.2266 29.5547 21.6602 29.0742 23.5937Z" fill="white"/>
</svg>
