<svg width="50" height="50" viewBox="0 0 50 50" fill="none" xmlns="http://www.w3.org/2000/svg">
<circle cx="25.5" cy="25.5" r="21.5" stroke="#EBEBEB" stroke-width="6"/>
<path d="M34.8464 23.0401C35.232 20.4183 33.2424 18.9994 30.4972 18.0586L31.3917 14.496L29.2326 13.9562L28.3689 17.4263C27.7983 17.2875 27.2122 17.1487 26.6262 17.0253L27.4898 13.5398L25.3307 13L24.4516 16.5472C23.9735 16.4392 23.5108 16.3313 23.0635 16.2233V16.2079L20.0716 15.4676L19.5009 17.781C19.5009 17.781 21.1049 18.1511 21.074 18.1666C21.9531 18.3825 22.1073 18.9685 22.0765 19.4312L21.0586 23.4874C21.1203 23.5028 21.1974 23.5182 21.2899 23.5645C21.2128 23.549 21.1357 23.5336 21.0586 23.5028L19.6397 29.1783C19.5318 29.4405 19.2542 29.8415 18.6527 29.6872C18.6681 29.7181 17.0796 29.3017 17.0796 29.3017L16 31.7847L18.8223 32.4941C19.3467 32.6329 19.8556 32.7563 20.3646 32.8951L19.4701 36.4886L21.6292 37.0284L22.5238 33.4658C23.1098 33.62 23.6959 33.7742 24.2511 33.913L23.372 37.4602L25.5312 38L26.4257 34.4065C30.1271 35.1006 32.9031 34.8229 34.0598 31.4762C35.0006 28.7927 34.0136 27.235 32.0703 26.2171C33.5046 25.8933 34.5688 24.9525 34.8464 23.0401V23.0401ZM29.8957 29.9803C29.2326 32.6638 24.6983 31.2141 23.2332 30.8439L24.4207 26.0783C25.8859 26.4485 30.6052 27.1734 29.8957 29.9803ZM30.5743 22.9938C29.9574 25.446 26.1943 24.1968 24.9759 23.8883L26.0555 19.57C27.2739 19.8785 31.2067 20.4491 30.5743 22.9938Z" fill="#EBEBEB"/>
</svg>
